<mxfile host="app.diagrams.net" modified="2023-04-15T15:34:26.170Z" agent="Mozilla/5.0 (Windows NT 10.0; Win64; x64) AppleWebKit/537.36 (KHTML, like Gecko) Chrome/112.0.0.0 Safari/537.36 Edg/112.0.1722.46" etag="KDwS-cEXnw3lQRt5mkPZ" version="21.1.8" type="device">
  <diagram name="Page-1" id="2YBvvXClWsGukQMizWep">
    <mxGraphModel dx="788" dy="516" grid="1" gridSize="10" guides="1" tooltips="1" connect="1" arrows="1" fold="1" page="1" pageScale="1" pageWidth="850" pageHeight="1100" math="0" shadow="0">
      <root>
        <mxCell id="0" />
        <mxCell id="1" parent="0" />
        <mxCell id="0RFma7-_83MBAhV1fwxi-22" value="Buyer" style="shape=umlLifeline;perimeter=lifelinePerimeter;whiteSpace=wrap;html=1;container=0;dropTarget=0;collapsible=0;recursiveResize=0;outlineConnect=0;portConstraint=eastwest;newEdgeStyle={&quot;edgeStyle&quot;:&quot;elbowEdgeStyle&quot;,&quot;elbow&quot;:&quot;vertical&quot;,&quot;curved&quot;:0,&quot;rounded&quot;:0};" vertex="1" parent="1">
          <mxGeometry x="40" y="40" width="100" height="370" as="geometry" />
        </mxCell>
        <mxCell id="0RFma7-_83MBAhV1fwxi-23" value="" style="html=1;points=[];perimeter=orthogonalPerimeter;outlineConnect=0;targetShapes=umlLifeline;portConstraint=eastwest;newEdgeStyle={&quot;edgeStyle&quot;:&quot;elbowEdgeStyle&quot;,&quot;elbow&quot;:&quot;vertical&quot;,&quot;curved&quot;:0,&quot;rounded&quot;:0};" vertex="1" parent="0RFma7-_83MBAhV1fwxi-22">
          <mxGeometry x="45" y="40" width="10" height="330" as="geometry" />
        </mxCell>
        <mxCell id="0RFma7-_83MBAhV1fwxi-24" value="Buyer menu" style="shape=umlLifeline;perimeter=lifelinePerimeter;whiteSpace=wrap;html=1;container=0;dropTarget=0;collapsible=0;recursiveResize=0;outlineConnect=0;portConstraint=eastwest;newEdgeStyle={&quot;edgeStyle&quot;:&quot;elbowEdgeStyle&quot;,&quot;elbow&quot;:&quot;vertical&quot;,&quot;curved&quot;:0,&quot;rounded&quot;:0};" vertex="1" parent="1">
          <mxGeometry x="220" y="40" width="100" height="370" as="geometry" />
        </mxCell>
        <mxCell id="0RFma7-_83MBAhV1fwxi-25" value="" style="html=1;points=[];perimeter=orthogonalPerimeter;outlineConnect=0;targetShapes=umlLifeline;portConstraint=eastwest;newEdgeStyle={&quot;edgeStyle&quot;:&quot;elbowEdgeStyle&quot;,&quot;elbow&quot;:&quot;vertical&quot;,&quot;curved&quot;:0,&quot;rounded&quot;:0};" vertex="1" parent="0RFma7-_83MBAhV1fwxi-24">
          <mxGeometry x="45" y="80" width="10" height="180" as="geometry" />
        </mxCell>
        <mxCell id="0RFma7-_83MBAhV1fwxi-26" value="" style="endArrow=classic;html=1;rounded=0;" edge="1" parent="0RFma7-_83MBAhV1fwxi-24" source="0RFma7-_83MBAhV1fwxi-25" target="0RFma7-_83MBAhV1fwxi-25">
          <mxGeometry width="50" height="50" relative="1" as="geometry">
            <mxPoint x="70" y="120" as="sourcePoint" />
            <mxPoint x="120" y="70" as="targetPoint" />
            <Array as="points">
              <mxPoint x="75" y="90" />
              <mxPoint x="75" y="120" />
            </Array>
          </mxGeometry>
        </mxCell>
        <mxCell id="0RFma7-_83MBAhV1fwxi-27" value="" style="endArrow=classic;html=1;rounded=0;" edge="1" parent="0RFma7-_83MBAhV1fwxi-24" source="0RFma7-_83MBAhV1fwxi-25" target="0RFma7-_83MBAhV1fwxi-25">
          <mxGeometry width="50" height="50" relative="1" as="geometry">
            <mxPoint x="50" y="200" as="sourcePoint" />
            <mxPoint x="100" y="150" as="targetPoint" />
            <Array as="points">
              <mxPoint x="75" y="160" />
              <mxPoint x="75" y="180" />
            </Array>
          </mxGeometry>
        </mxCell>
        <mxCell id="0RFma7-_83MBAhV1fwxi-28" value="open" style="html=1;verticalAlign=bottom;endArrow=block;edgeStyle=elbowEdgeStyle;elbow=vertical;curved=0;rounded=0;" edge="1" parent="1" source="0RFma7-_83MBAhV1fwxi-23" target="0RFma7-_83MBAhV1fwxi-25">
          <mxGeometry relative="1" as="geometry">
            <mxPoint x="195" y="130" as="sourcePoint" />
            <Array as="points">
              <mxPoint x="180" y="120" />
            </Array>
          </mxGeometry>
        </mxCell>
        <mxCell id="0RFma7-_83MBAhV1fwxi-29" value="show variants" style="text;html=1;align=center;verticalAlign=middle;resizable=0;points=[];autosize=1;strokeColor=none;fillColor=none;" vertex="1" parent="1">
          <mxGeometry x="290" y="130" width="100" height="30" as="geometry" />
        </mxCell>
        <mxCell id="0RFma7-_83MBAhV1fwxi-30" value="" style="endArrow=classic;html=1;rounded=0;" edge="1" parent="1" source="0RFma7-_83MBAhV1fwxi-23" target="0RFma7-_83MBAhV1fwxi-25">
          <mxGeometry relative="1" as="geometry">
            <mxPoint x="150" y="189.57999999999998" as="sourcePoint" />
            <mxPoint x="250" y="189.57999999999998" as="targetPoint" />
            <Array as="points">
              <mxPoint x="220" y="190" />
            </Array>
          </mxGeometry>
        </mxCell>
        <mxCell id="0RFma7-_83MBAhV1fwxi-31" value="open action" style="edgeLabel;resizable=0;html=1;align=center;verticalAlign=middle;" connectable="0" vertex="1" parent="0RFma7-_83MBAhV1fwxi-30">
          <mxGeometry relative="1" as="geometry">
            <mxPoint y="-10" as="offset" />
          </mxGeometry>
        </mxCell>
        <mxCell id="0RFma7-_83MBAhV1fwxi-33" value="show actions" style="text;html=1;align=center;verticalAlign=middle;resizable=0;points=[];autosize=1;strokeColor=none;fillColor=none;" vertex="1" parent="1">
          <mxGeometry x="290" y="190" width="90" height="30" as="geometry" />
        </mxCell>
        <mxCell id="0RFma7-_83MBAhV1fwxi-41" value="Action" style="shape=umlLifeline;perimeter=lifelinePerimeter;whiteSpace=wrap;html=1;container=0;dropTarget=0;collapsible=0;recursiveResize=0;outlineConnect=0;portConstraint=eastwest;newEdgeStyle={&quot;edgeStyle&quot;:&quot;elbowEdgeStyle&quot;,&quot;elbow&quot;:&quot;vertical&quot;,&quot;curved&quot;:0,&quot;rounded&quot;:0};" vertex="1" parent="1">
          <mxGeometry x="430" y="90" width="100" height="320" as="geometry" />
        </mxCell>
        <mxCell id="0RFma7-_83MBAhV1fwxi-42" value="" style="html=1;points=[];perimeter=orthogonalPerimeter;outlineConnect=0;targetShapes=umlLifeline;portConstraint=eastwest;newEdgeStyle={&quot;edgeStyle&quot;:&quot;elbowEdgeStyle&quot;,&quot;elbow&quot;:&quot;vertical&quot;,&quot;curved&quot;:0,&quot;rounded&quot;:0};" vertex="1" parent="0RFma7-_83MBAhV1fwxi-41">
          <mxGeometry x="45" y="190" width="10" height="40" as="geometry" />
        </mxCell>
        <mxCell id="0RFma7-_83MBAhV1fwxi-49" value="" style="endArrow=classic;html=1;rounded=0;" edge="1" parent="0RFma7-_83MBAhV1fwxi-41" source="0RFma7-_83MBAhV1fwxi-42" target="0RFma7-_83MBAhV1fwxi-42">
          <mxGeometry width="50" height="50" relative="1" as="geometry">
            <mxPoint x="140" y="240" as="sourcePoint" />
            <mxPoint x="190" y="190" as="targetPoint" />
          </mxGeometry>
        </mxCell>
        <mxCell id="0RFma7-_83MBAhV1fwxi-45" value="" style="endArrow=classic;html=1;rounded=0;" edge="1" parent="1" source="0RFma7-_83MBAhV1fwxi-23" target="0RFma7-_83MBAhV1fwxi-25">
          <mxGeometry relative="1" as="geometry">
            <mxPoint x="290" y="260" as="sourcePoint" />
            <mxPoint x="560" y="260" as="targetPoint" />
            <Array as="points">
              <mxPoint x="220" y="260" />
            </Array>
          </mxGeometry>
        </mxCell>
        <mxCell id="0RFma7-_83MBAhV1fwxi-46" value="select" style="edgeLabel;resizable=0;html=1;align=center;verticalAlign=middle;" connectable="0" vertex="1" parent="0RFma7-_83MBAhV1fwxi-45">
          <mxGeometry relative="1" as="geometry">
            <mxPoint x="-5" y="-10" as="offset" />
          </mxGeometry>
        </mxCell>
        <mxCell id="0RFma7-_83MBAhV1fwxi-47" value="" style="endArrow=classic;html=1;rounded=0;" edge="1" parent="1" source="0RFma7-_83MBAhV1fwxi-25" target="0RFma7-_83MBAhV1fwxi-42">
          <mxGeometry relative="1" as="geometry">
            <mxPoint x="360" y="320" as="sourcePoint" />
            <mxPoint x="460" y="320" as="targetPoint" />
            <Array as="points">
              <mxPoint x="420" y="290" />
            </Array>
          </mxGeometry>
        </mxCell>
        <mxCell id="0RFma7-_83MBAhV1fwxi-48" value="open" style="edgeLabel;resizable=0;html=1;align=center;verticalAlign=middle;" connectable="0" vertex="1" parent="0RFma7-_83MBAhV1fwxi-47">
          <mxGeometry relative="1" as="geometry">
            <mxPoint y="-15" as="offset" />
          </mxGeometry>
        </mxCell>
        <mxCell id="0RFma7-_83MBAhV1fwxi-50" value="show action details" style="text;html=1;align=center;verticalAlign=middle;resizable=0;points=[];autosize=1;strokeColor=none;fillColor=none;" vertex="1" parent="1">
          <mxGeometry x="500" y="290" width="120" height="30" as="geometry" />
        </mxCell>
        <mxCell id="0RFma7-_83MBAhV1fwxi-51" value="BUYER OPEN ACTION" style="text;html=1;align=center;verticalAlign=middle;resizable=0;points=[];autosize=1;strokeColor=none;fillColor=none;strokeWidth=1;fontStyle=1" vertex="1" parent="1">
          <mxGeometry x="15" y="10" width="150" height="30" as="geometry" />
        </mxCell>
      </root>
    </mxGraphModel>
  </diagram>
</mxfile>
